#Comment line ignore any data following # character 
#Hierarchical Translation and Rotation (.htr) file 
[Header]	
#Header keywords are followed by a single value 
FileType HTR		#Single word string
DataType HTRS		#Translation followed by rotation and scale data
FileVersion 1		#integer
NumSegments 84		#integer
NumFrames 2		#integer
DataFrameRate 30		#integer, data frame rate in this file
EulerRotationOrder ZYX
CalibrationUnits mm
RotationUnits Degrees
GlobalAxisofGravity Y
BoneLengthAxis Y
ScaleFactor 1.00
[SegmentNames&Hierarchy]
#CHILD	PARENT
MASTER GLOBAL
root MASTER
chest root
L_mid_tent01 root
R_mid_tent01 root
spine01 root
Bip01_Neck chest
L_humerus chest
R_humerus chest
weapon_bone chest
Bip01_Head Bip01_Neck
eye_left_bone Bip01_Head
eye_right_bone Bip01_Head
L_forearm L_humerus
L_front_hand L_forearm
L_weapon_bone L_forearm
L_front_hand01_01 L_front_hand
L_front_hand02_01 L_front_hand
L_front_hand03_01 L_front_hand
L_front_hand01_02 L_front_hand01_01
L_front_hand02_02 L_front_hand02_01
L_front_hand03_02 L_front_hand03_01
R_forearm R_humerus
R_front_hand R_forearm
R_weapon_bone R_forearm
R_front_hand01_01 R_front_hand
R_front_hand02_01 R_front_hand
R_front_hand03_01 R_front_hand
R_front_hand01_02 R_front_hand01_01
R_front_hand02_02 R_front_hand02_01
R_front_hand03_02 R_front_hand03_01
null_rope01_connect L_mid_tent01
Rope1_Seg01 null_rope01_connect
Rope1_Seg02 Rope1_Seg01
Rope1_Seg03 Rope1_Seg02
Rope1_Seg04 Rope1_Seg03
Rope1_Seg05 Rope1_Seg04
Rope1_Seg06 Rope1_Seg05
Rope1_Seg07 Rope1_Seg06
Rope1_Seg09 Rope1_Seg07
L_mid_hand01 Rope1_Seg09
L_mid_hand02 Rope1_Seg09
L_mid_hand03 Rope1_Seg09
null_rope02_connect R_mid_tent01
Rope2_Seg01 null_rope02_connect
Rope2_Seg02 Rope2_Seg01
Rope2_Seg03 Rope2_Seg02
Rope2_Seg04 Rope2_Seg03
Rope2_Seg05 Rope2_Seg04
Rope2_Seg06 Rope2_Seg05
Rope2_Seg07 Rope2_Seg06
Rope2_Seg09 Rope2_Seg07
R_mid_hand01 Rope2_Seg09
R_mid_hand02 Rope2_Seg09
R_mid_hand03 Rope2_Seg09
spine02 spine01
spine03 spine02
pelvis spine03
null_rope03_connect pelvis
null_rope04_connect pelvis
Rope3_Seg01 null_rope03_connect
Rope3_Seg02 Rope3_Seg01
Rope3_Seg03 Rope3_Seg02
Rope3_Seg04 Rope3_Seg03
Rope3_Seg05 Rope3_Seg04
Rope3_Seg06 Rope3_Seg05
Rope3_Seg07 Rope3_Seg06
Rope3_Seg08 Rope3_Seg07
Rope3_Seg09 Rope3_Seg08
R_rear_hand01 Rope3_Seg09
R_rear_hand02 Rope3_Seg09
R_rear_hand03 Rope3_Seg09
Rope4_Seg01 null_rope04_connect
Rope4_Seg02 Rope4_Seg01
Rope4_Seg03 Rope4_Seg02
Rope4_Seg04 Rope4_Seg03
Rope4_Seg05 Rope4_Seg04
Rope4_Seg06 Rope4_Seg05
Rope4_Seg07 Rope4_Seg06
Rope4_Seg08 Rope4_Seg07
Rope4_Seg09 Rope4_Seg08
L_rear_hand01 Rope4_Seg09
L_rear_hand02 Rope4_Seg09
L_rear_hand03 Rope4_Seg09
[BasePosition]
#SegmentName Tx, Ty, Tz, Rx, Ry, Rz, BoneLength
MASTER 0.000000 0.000000 0.000000 -90.000000 0.000000 0.000000 10.000000 
root 0.000000 0.000000 0.000000 0.000000 0.000000 0.000000 10.000000 
chest 0.000000 0.000000 0.000000 0.000000 0.000000 0.000000 10.000000 
L_mid_tent01 0.000000 0.000000 0.000000 0.000000 0.000000 0.000000 10.000000 
R_mid_tent01 0.000000 0.000000 0.000000 0.000000 0.000000 0.000000 10.000000 
spine01 0.000000 0.000000 0.000000 0.000000 0.000000 0.000000 10.000000 
Bip01_Neck 0.000000 0.000000 0.000000 0.000000 0.000000 0.000000 10.000000 
L_humerus 0.000000 0.000000 0.000000 0.000000 0.000000 0.000000 10.000000 
R_humerus 0.000000 0.000000 0.000000 0.000000 0.000000 0.000000 10.000000 
weapon_bone 0.000000 0.000000 0.000000 0.000000 0.000000 0.000000 10.000000 
Bip01_Head 0.000000 0.000000 0.000000 0.000000 0.000000 0.000000 10.000000 
eye_left_bone 0.000000 0.000000 0.000000 0.000000 0.000000 0.000000 10.000000 
eye_right_bone 0.000000 0.000000 0.000000 0.000000 0.000000 0.000000 10.000000 
L_forearm 0.000000 0.000000 0.000000 0.000000 0.000000 0.000000 10.000000 
L_front_hand 0.000000 0.000000 0.000000 0.000000 0.000000 0.000000 10.000000 
L_weapon_bone 0.000000 0.000000 0.000000 0.000000 0.000000 0.000000 10.000000 
L_front_hand01_01 0.000000 0.000000 0.000000 0.000000 0.000000 0.000000 10.000000 
L_front_hand02_01 0.000000 0.000000 0.000000 0.000000 0.000000 0.000000 10.000000 
L_front_hand03_01 0.000000 0.000000 0.000000 0.000000 0.000000 0.000000 10.000000 
L_front_hand01_02 0.000000 0.000000 0.000000 0.000000 0.000000 0.000000 10.000000 
L_front_hand02_02 0.000000 0.000000 0.000000 0.000000 0.000000 0.000000 10.000000 
L_front_hand03_02 0.000000 0.000000 0.000000 0.000000 0.000000 0.000000 10.000000 
R_forearm 0.000000 0.000000 0.000000 0.000000 0.000000 0.000000 10.000000 
R_front_hand 0.000000 0.000000 0.000000 0.000000 0.000000 0.000000 10.000000 
R_weapon_bone 0.000000 0.000000 0.000000 0.000000 0.000000 0.000000 10.000000 
R_front_hand01_01 0.000000 0.000000 0.000000 0.000000 0.000000 0.000000 10.000000 
R_front_hand02_01 0.000000 0.000000 0.000000 0.000000 0.000000 0.000000 10.000000 
R_front_hand03_01 0.000000 0.000000 0.000000 0.000000 0.000000 0.000000 10.000000 
R_front_hand01_02 0.000000 0.000000 0.000000 0.000000 0.000000 0.000000 10.000000 
R_front_hand02_02 0.000000 0.000000 0.000000 0.000000 0.000000 0.000000 10.000000 
R_front_hand03_02 0.000000 0.000000 0.000000 0.000000 0.000000 0.000000 10.000000 
null_rope01_connect 0.000000 0.000000 0.000000 0.000000 0.000000 0.000000 10.000000 
Rope1_Seg01 0.000000 0.000000 0.000000 0.000000 0.000000 0.000000 10.000000 
Rope1_Seg02 0.000000 0.000000 0.000000 0.000000 0.000000 0.000000 10.000000 
Rope1_Seg03 0.000000 0.000000 0.000000 0.000000 0.000000 0.000000 10.000000 
Rope1_Seg04 0.000000 0.000000 0.000000 0.000000 0.000000 0.000000 10.000000 
Rope1_Seg05 0.000000 0.000000 0.000000 0.000000 0.000000 0.000000 10.000000 
Rope1_Seg06 0.000000 0.000000 0.000000 0.000000 0.000000 0.000000 10.000000 
Rope1_Seg07 0.000000 0.000000 0.000000 0.000000 0.000000 0.000000 10.000000 
Rope1_Seg09 0.000000 0.000000 0.000000 0.000000 0.000000 0.000000 10.000000 
L_mid_hand01 0.000000 0.000000 0.000000 0.000000 0.000000 0.000000 10.000000 
L_mid_hand02 0.000000 0.000000 0.000000 0.000000 0.000000 0.000000 10.000000 
L_mid_hand03 0.000000 0.000000 0.000000 0.000000 0.000000 0.000000 10.000000 
null_rope02_connect 0.000000 0.000000 0.000000 0.000000 0.000000 0.000000 10.000000 
Rope2_Seg01 0.000000 0.000000 0.000000 0.000000 0.000000 0.000000 10.000000 
Rope2_Seg02 0.000000 0.000000 0.000000 0.000000 0.000000 0.000000 10.000000 
Rope2_Seg03 0.000000 0.000000 0.000000 0.000000 0.000000 0.000000 10.000000 
Rope2_Seg04 0.000000 0.000000 0.000000 0.000000 0.000000 0.000000 10.000000 
Rope2_Seg05 0.000000 0.000000 0.000000 0.000000 0.000000 0.000000 10.000000 
Rope2_Seg06 0.000000 0.000000 0.000000 0.000000 0.000000 0.000000 10.000000 
Rope2_Seg07 0.000000 0.000000 0.000000 0.000000 0.000000 0.000000 10.000000 
Rope2_Seg09 0.000000 0.000000 0.000000 0.000000 0.000000 0.000000 10.000000 
R_mid_hand01 0.000000 0.000000 0.000000 0.000000 0.000000 0.000000 10.000000 
R_mid_hand02 0.000000 0.000000 0.000000 0.000000 0.000000 0.000000 10.000000 
R_mid_hand03 0.000000 0.000000 0.000000 0.000000 0.000000 0.000000 10.000000 
spine02 0.000000 0.000000 0.000000 0.000000 0.000000 0.000000 10.000000 
spine03 0.000000 0.000000 0.000000 0.000000 0.000000 0.000000 10.000000 
pelvis 0.000000 0.000000 0.000000 0.000000 0.000000 0.000000 10.000000 
null_rope03_connect 0.000000 0.000000 0.000000 0.000000 0.000000 0.000000 10.000000 
null_rope04_connect 0.000000 0.000000 0.000000 0.000000 0.000000 0.000000 10.000000 
Rope3_Seg01 0.000000 0.000000 0.000000 0.000000 0.000000 0.000000 10.000000 
Rope3_Seg02 0.000000 0.000000 0.000000 0.000000 0.000000 0.000000 10.000000 
Rope3_Seg03 0.000000 0.000000 0.000000 0.000000 0.000000 0.000000 10.000000 
Rope3_Seg04 0.000000 0.000000 0.000000 0.000000 0.000000 0.000000 10.000000 
Rope3_Seg05 0.000000 0.000000 0.000000 0.000000 0.000000 0.000000 10.000000 
Rope3_Seg06 0.000000 0.000000 0.000000 0.000000 0.000000 0.000000 10.000000 
Rope3_Seg07 0.000000 0.000000 0.000000 0.000000 0.000000 0.000000 10.000000 
Rope3_Seg08 0.000000 0.000000 0.000000 0.000000 0.000000 0.000000 10.000000 
Rope3_Seg09 0.000000 0.000000 0.000000 0.000000 0.000000 0.000000 10.000000 
R_rear_hand01 0.000000 0.000000 0.000000 0.000000 0.000000 0.000000 10.000000 
R_rear_hand02 0.000000 0.000000 0.000000 0.000000 0.000000 0.000000 10.000000 
R_rear_hand03 0.000000 0.000000 0.000000 0.000000 0.000000 0.000000 10.000000 
Rope4_Seg01 0.000000 0.000000 0.000000 0.000000 0.000000 0.000000 10.000000 
Rope4_Seg02 0.000000 0.000000 0.000000 0.000000 0.000000 0.000000 10.000000 
Rope4_Seg03 0.000000 0.000000 0.000000 0.000000 0.000000 0.000000 10.000000 
Rope4_Seg04 0.000000 0.000000 0.000000 0.000000 0.000000 0.000000 10.000000 
Rope4_Seg05 0.000000 0.000000 0.000000 0.000000 0.000000 0.000000 10.000000 
Rope4_Seg06 0.000000 0.000000 0.000000 0.000000 0.000000 0.000000 10.000000 
Rope4_Seg07 0.000000 0.000000 0.000000 0.000000 0.000000 0.000000 10.000000 
Rope4_Seg08 0.000000 0.000000 0.000000 0.000000 0.000000 0.000000 10.000000 
Rope4_Seg09 0.000000 0.000000 0.000000 0.000000 0.000000 0.000000 10.000000 
L_rear_hand01 0.000000 0.000000 0.000000 0.000000 0.000000 0.000000 10.000000 
L_rear_hand02 0.000000 0.000000 0.000000 0.000000 0.000000 0.000000 10.000000 
L_rear_hand03 0.000000 0.000000 0.000000 0.000000 0.000000 0.000000 10.000000 
#Beginning of Data. Separated by tabs
#Fr	Tx	Ty	Tz	Rx	Ry	Rz	SF
[MASTER]
6 0.000000 0.000000 0.000000 0.001660 0.001660 0.001660 0.000000
7 0.000000 0.000000 0.000000 0.001660 0.001660 0.001660 0.000000
[root]
6 -2.073269 -1.253786 1434.144287 -91.728905 -11.584499 -89.471634 1434.146362
7 -2.090980 -3.093151 1429.606323 -91.728889 -11.584497 -89.471619 1429.611084
[chest]
6 -84.512650 -34.090519 0.000000 -2.170494 -0.006436 168.239609 91.129311
7 -84.512650 -34.090519 0.000000 -2.170494 -0.006436 168.239609 91.129311
[L_mid_tent01]
6 27.299511 22.177458 -249.918259 -20.661392 12.026042 12.983023 252.381134
7 27.299511 22.177458 -249.918259 -20.661392 12.026043 12.983022 252.381134
[R_mid_tent01]
6 23.228794 24.509907 226.238495 -165.192200 -17.956034 24.056786 228.744751
7 23.228794 24.509907 226.238495 -165.192200 -17.956036 24.056787 228.744751
[spine01]
6 -0.361383 -0.195265 0.000000 -0.000001 -0.000007 22.052340 0.410763
7 -0.361383 -0.195265 0.000000 -0.000001 -0.000007 22.052340 0.410763
[Bip01_Neck]
6 165.484543 71.581718 0.000119 175.896118 1.177290 24.871183 180.302734
7 165.484543 71.581718 0.000119 175.896118 1.177290 24.871183 180.302734
[L_humerus]
6 -13.983130 -135.272980 -120.471481 -5.480129 68.873367 84.573456 181.680161
7 -13.983130 -135.272980 -120.471481 -5.480140 68.873367 84.573456 181.680161
[R_humerus]
6 -13.983309 -135.273102 125.287651 27.897161 -69.888802 67.752319 184.909012
7 -13.983309 -135.273102 125.287651 27.897165 -69.888802 67.752319 184.909012
[weapon_bone]
6 235.964890 -300.705902 0.000000 0.000000 -89.951546 -128.212341 382.234833
7 235.964890 -300.705902 0.000000 0.000000 -89.951546 -128.212341 382.234833
[Bip01_Head]
6 193.865707 99.525291 7.890739 1.727521 4.534426 -43.429161 218.062973
7 193.865707 99.525291 7.890739 1.727521 4.534425 -43.429157 218.062973
[eye_left_bone]
6 -24.626970 125.451866 -64.772606 0.000000 -90.000000 -99.840431 143.318359
7 -24.626970 125.451866 -64.772606 0.000000 -90.000000 -99.840431 143.318359
[eye_right_bone]
6 -24.626970 125.451866 64.327362 0.000000 -89.965736 80.156380 143.117676
7 -24.626970 125.451866 64.327362 0.000000 -89.965736 80.156380 143.117676
[L_forearm]
6 322.776093 0.000000 -0.000119 0.000396 -0.002314 -109.419975 322.776093
7 322.776093 0.000000 -0.000119 0.000396 -0.002314 -109.419975 322.776093
[L_front_hand]
6 241.149185 -0.042021 -3.300071 -179.659958 -2.242151 -0.019832 241.171753
7 241.149185 -0.042021 -3.300071 -179.659958 -2.242151 -0.019832 241.171753
[L_weapon_bone]
6 156.183838 0.000000 0.000000 0.000014 0.000007 0.000001 156.183838
7 156.183838 0.000000 0.000000 0.000014 0.000007 0.000001 156.183838
[L_front_hand01_01]
6 86.095154 20.947098 -0.655860 -0.366594 -0.477154 75.385582 88.609184
7 86.095154 20.947098 -0.655860 -0.366594 -0.477154 75.385574 88.609184
[L_front_hand02_01]
6 86.935165 -11.437475 24.513514 154.399796 -59.883835 -61.369587 91.046425
7 86.935165 -11.437475 24.513514 154.399796 -59.883835 -61.369587 91.046425
[L_front_hand03_01]
6 86.637497 -14.123976 -20.424902 -153.913849 58.118122 -62.702866 90.126129
7 86.637497 -14.123976 -20.424902 -153.913849 58.118122 -62.702866 90.126129
[L_front_hand01_02]
6 71.020905 -0.000179 0.000030 0.000334 -0.002323 -106.379684 71.020905
7 71.020905 -0.000179 0.000030 0.000334 -0.002323 -106.379684 71.020905
[L_front_hand02_02]
6 71.020927 -0.000119 0.000060 0.000334 -0.002323 -106.379684 71.020927
7 71.020927 -0.000119 0.000060 0.000334 -0.002323 -106.379684 71.020927
[L_front_hand03_02]
6 71.020905 -0.000060 0.000060 0.000334 -0.002323 -106.379684 71.020905
7 71.020905 -0.000060 0.000060 0.000334 -0.002323 -106.379684 71.020905
[R_forearm]
6 322.776428 -0.000060 0.000030 0.202103 0.065158 -108.062805 322.776428
7 322.776428 -0.000060 0.000030 0.202103 0.065158 -108.062820 322.776428
[R_front_hand]
6 238.847015 -0.006795 2.210259 -0.270529 1.703932 2.322531 238.857239
7 238.847015 -0.006795 2.210259 -0.270529 1.703932 2.322530 238.857239
[R_weapon_bone]
6 155.664093 0.002503 -0.000030 0.003487 0.001180 -90.988930 155.664078
7 155.664093 0.002503 -0.000030 0.003487 0.001180 -90.988930 155.664078
[R_front_hand01_01]
6 87.624611 14.231146 22.918642 -154.633499 -59.950619 61.746044 91.683487
7 87.624611 14.231146 22.918642 -154.633484 -59.950619 61.746037 91.683487
[R_front_hand02_01]
6 89.356956 14.367283 -19.491137 154.602661 58.302849 63.744389 92.579636
7 89.356956 14.367283 -19.491137 154.602661 58.302849 63.744389 92.579636
[R_front_hand03_01]
6 87.286232 -22.307278 -0.143439 0.162155 -0.423168 -75.767921 90.091743
7 87.286232 -22.307278 -0.143439 0.162155 -0.423168 -75.767921 90.091743
[R_front_hand01_02]
6 71.020905 0.000060 0.000119 0.002323 -0.000334 106.381714 71.020905
7 71.020905 0.000060 0.000119 0.002323 -0.000334 106.381714 71.020905
[R_front_hand02_02]
6 71.020844 -0.000030 -0.000119 0.002323 -0.000334 106.381714 71.020836
7 71.020844 -0.000030 -0.000119 0.002323 -0.000334 106.381714 71.020836
[R_front_hand03_02]
6 71.020905 0.000000 0.000030 0.002323 -0.000334 106.381714 71.020905
7 71.020905 0.000000 0.000030 0.002323 -0.000334 106.381714 71.020905
[null_rope01_connect]
6 328.732483 0.000000 -0.000238 -154.483353 -64.791336 -118.914307 328.732483
7 328.732483 0.000000 -0.000238 -154.483353 -64.791321 -118.914307 328.732483
[Rope1_Seg01]
6 -0.000038 -0.000114 0.000099 47.448204 -1.307186 -119.685211 0.000156
7 -0.000038 -0.000114 0.000099 49.808834 -1.750954 -120.826210 0.000156
[Rope1_Seg02]
6 139.999863 -0.000179 0.000000 -10.692295 5.229411 1.222546 139.999863
7 139.999863 -0.000179 0.000000 -11.469223 5.619180 1.467439 139.999863
[Rope1_Seg03]
6 139.999924 0.000060 -0.000060 -14.285203 5.374456 3.190515 139.999924
7 139.999924 0.000060 -0.000060 -14.772502 5.652495 3.433453 139.999924
[Rope1_Seg04]
6 139.999924 -0.000060 -0.000119 -14.719215 4.873577 4.404585 139.999924
7 139.999924 -0.000060 -0.000119 -15.581142 5.183792 5.105724 139.999924
[Rope1_Seg05]
6 139.999832 0.000119 -0.000060 -0.949879 2.912703 -2.778481 139.999832
7 139.999832 0.000119 -0.000060 -3.961532 3.226915 -1.199117 139.999832
[Rope1_Seg06]
6 139.999954 0.000119 -0.000060 0.769231 1.399863 -1.957614 139.999954
7 139.999954 0.000119 -0.000060 -1.275358 1.616671 -1.109522 139.999954
[Rope1_Seg07]
6 139.999985 0.000060 0.000000 -0.789261 0.858098 -0.602710 139.999985
7 139.999985 0.000060 0.000000 -1.794645 0.949683 -0.107199 139.999985
[Rope1_Seg09]
6 121.602913 0.000119 -0.000089 -89.793175 -1.359789 0.847147 121.602913
7 121.602913 0.000119 -0.000089 -89.793175 -1.359789 0.847147 121.602913
[L_mid_hand01]
6 103.859421 1.038730 8.195221 106.855484 -31.239275 -9.461397 104.187431
7 103.859421 1.038730 8.195221 106.855484 -31.239275 -9.461397 104.187431
[L_mid_hand02]
6 105.572853 -4.139662 -10.864139 -142.331345 25.752670 -28.774628 106.211075
7 105.572853 -4.139662 -10.864139 -142.331345 25.752670 -28.774628 106.211075
[L_mid_hand03]
6 104.641464 17.579376 -3.913581 -16.122810 9.734291 34.223598 106.179977
7 104.641464 17.579376 -3.913581 -16.122810 9.734291 34.223598 106.179977
[null_rope02_connect]
6 328.732849 0.000179 -0.000119 -140.208801 68.099228 -35.150650 328.732849
7 328.732849 0.000179 -0.000119 -140.208771 68.099213 -35.150623 328.732849
[Rope2_Seg01]
6 0.000095 0.000153 0.000013 29.230120 0.585659 -44.227783 0.000180
7 0.000095 0.000153 0.000015 21.708250 0.557001 -41.730984 0.000181
[Rope2_Seg02]
6 139.999741 -0.000060 -0.000119 49.026882 -4.705141 -17.820557 139.999756
7 139.999741 -0.000060 -0.000119 52.469387 -3.447176 -18.787058 139.999756
[Rope2_Seg03]
6 140.000107 0.000030 0.000000 19.315178 -20.340410 -6.628885 140.000107
7 140.000107 0.000030 0.000000 21.227404 -21.528460 -7.652365 140.000107
[Rope2_Seg04]
6 139.999802 0.000000 -0.000060 6.699358 -2.368347 -5.435978 139.999802
7 139.999802 0.000000 -0.000060 7.473046 -5.272669 -5.425107 139.999802
[Rope2_Seg05]
6 139.999985 -0.000060 0.000119 3.555180 6.292632 -5.920881 139.999985
7 139.999985 -0.000060 0.000119 4.293838 5.574790 -6.705626 139.999985
[Rope2_Seg06]
6 139.999893 -0.000030 -0.000119 2.162194 1.163968 -2.078890 139.999893
7 139.999893 -0.000030 -0.000119 2.423096 0.843771 -2.384878 139.999893
[Rope2_Seg07]
6 139.999893 0.000060 -0.000060 1.425532 0.521407 -1.223461 139.999893
7 139.999893 0.000060 -0.000060 1.546578 0.272355 -1.364784 139.999893
[Rope2_Seg09]
6 121.338966 0.000089 -0.000060 33.793236 -1.359788 -0.847141 121.338966
7 121.338966 0.000089 -0.000060 33.793236 -1.359788 -0.847141 121.338966
[R_mid_hand01]
6 104.680779 11.144459 -10.335981 -41.523792 25.424656 28.595957 105.778534
7 104.680779 11.144459 -10.335981 -41.523792 25.424656 28.595957 105.778534
[R_mid_hand02]
6 104.070427 2.443552 8.231699 72.847389 -32.746803 10.013901 104.424065
7 104.070427 2.443552 8.231699 72.847389 -32.746803 10.013901 104.424065
[R_mid_hand03]
6 106.028137 -11.221827 -5.996406 -167.901306 10.259192 -37.009720 106.788818
7 106.028137 -11.221827 -5.996406 -167.901306 10.259192 -37.009720 106.788818
[spine02]
6 129.756927 0.001550 0.000119 0.360061 -4.044797 -12.915057 129.756927
7 129.756927 0.001550 0.000119 0.360061 -4.044797 -12.915058 129.756927
[spine03]
6 78.613846 0.087372 -4.898873 1.896495 3.831288 16.473045 78.766380
7 78.613846 0.087372 -4.898873 1.896494 3.831287 16.473045 78.766380
[pelvis]
6 169.435242 0.051022 0.000000 -0.060465 -0.180225 14.087930 169.435257
7 169.435242 0.051022 0.000000 -0.060465 -0.180225 14.087930 169.435257
[null_rope03_connect]
6 -1.257226 -2.466202 137.391083 156.330139 -89.381348 -94.430740 137.418976
7 -1.257226 -2.466202 137.391083 156.329987 -89.381348 -94.430771 137.418976
[null_rope04_connect]
6 -1.259640 -2.480268 -137.844437 156.330139 -89.381348 -94.430740 137.872513
7 -1.259640 -2.480268 -137.844437 156.329987 -89.381348 -94.430771 137.872513
[Rope3_Seg01]
6 0.000010 0.000038 -0.000114 -127.860008 27.617046 -67.657387 0.000121
7 0.000010 0.000038 -0.000114 -128.410446 29.280977 -68.827934 0.000121
[Rope3_Seg02]
6 139.999924 -0.000119 0.000060 0.172177 5.080950 1.276670 139.999924
7 139.999924 -0.000119 0.000060 0.182970 4.572567 0.078259 139.999924
[Rope3_Seg03]
6 139.999924 -0.000119 0.000119 0.586355 6.729896 1.433281 139.999924
7 139.999924 -0.000119 0.000119 0.467791 6.073247 -0.082481 139.999924
[Rope3_Seg04]
6 139.999924 0.000119 0.000000 2.306217 14.186698 -1.027335 139.999924
7 139.999924 0.000119 0.000000 1.178347 12.676655 -5.233913 139.999924
[Rope3_Seg05]
6 139.999924 -0.000238 0.000060 -1.491152 -0.486106 8.230601 139.999924
7 139.999924 -0.000238 0.000060 -0.497030 2.222259 9.584915 139.999924
[Rope3_Seg06]
6 139.999893 -0.000119 -0.000060 -4.140383 -7.381516 7.300450 139.999893
7 139.999893 -0.000119 -0.000060 -4.144703 -5.194846 10.990634 139.999893
[Rope3_Seg07]
6 139.999771 0.000060 -0.000119 -0.896442 -1.920764 2.806810 139.999771
7 139.999771 0.000060 -0.000119 -1.001695 -1.127252 3.894956 139.999771
[Rope3_Seg08]
6 139.999985 -0.000060 0.000000 -0.295902 -1.117005 1.602137 139.999985
7 139.999985 -0.000060 0.000000 -0.396920 -0.663467 2.200028 139.999985
[Rope3_Seg09]
6 90.185997 -0.000179 -0.000060 89.793228 -1.359877 -0.847183 90.185997
7 90.185997 -0.000179 -0.000060 89.793228 -1.359877 -0.847183 90.185997
[R_rear_hand01]
6 103.366196 -6.073594 -10.757982 -161.551193 16.666374 -30.088671 104.101845
7 103.366196 -6.073594 -10.757982 -161.551193 16.666374 -30.088671 104.101845
[R_rear_hand02]
6 100.509819 12.039542 -7.992327 -34.280552 19.289745 28.875523 101.543350
7 100.509819 12.039542 -7.992327 -34.280552 19.289745 28.875523 101.543350
[R_rear_hand03]
6 101.539970 5.215704 5.435467 83.366440 -30.933914 7.284830 101.819031
7 101.539970 5.215704 5.435467 83.366440 -30.933914 7.284830 101.819031
[Rope4_Seg01]
6 0.000010 0.000038 -0.000114 51.584713 20.400684 -89.258949 0.000121
7 0.000010 0.000038 -0.000114 50.326519 19.179871 -92.513611 0.000121
[Rope4_Seg02]
6 139.999985 0.000060 0.000119 1.676258 -2.296299 -7.601717 139.999985
7 139.999985 0.000060 0.000119 1.380828 0.052506 -6.678646 139.999985
[Rope4_Seg03]
6 139.999924 0.000000 -0.000238 0.966014 -1.847008 -6.343704 139.999924
7 139.999924 0.000000 -0.000238 0.920059 0.480137 -5.323124 139.999924
[Rope4_Seg04]
6 139.999985 0.000000 0.000119 0.562100 0.199914 -5.088210 139.999985
7 139.999985 0.000000 0.000119 0.765446 3.488227 -3.364965 139.999985
[Rope4_Seg05]
6 139.999802 -0.000060 -0.000119 0.338202 -3.365695 -4.710047 139.999802
7 139.999802 -0.000060 -0.000119 0.649655 -3.707520 -5.172339 139.999802
[Rope4_Seg06]
6 139.999924 0.000000 0.000060 0.254594 -5.707824 -3.581884 139.999924
7 139.999924 0.000000 0.000060 0.509123 -8.423820 -5.403568 139.999924
[Rope4_Seg07]
6 139.999802 0.000000 0.000000 0.171170 -4.032141 -2.424487 139.999802
7 139.999802 0.000000 0.000000 0.210270 -5.426871 -3.459841 139.999802
[Rope4_Seg08]
6 139.999924 0.000000 0.000119 -1.524992 -2.007255 -1.524993 139.999924
7 139.999924 0.000000 0.000119 -1.540705 -2.492257 -1.879521 139.999924
[Rope4_Seg09]
6 90.185791 0.000060 0.000060 -135.617828 2.228885 0.850567 90.185791
7 90.185791 0.000060 0.000060 -135.617828 2.228885 0.850567 90.185791
[L_rear_hand01]
6 101.696655 -8.392275 -7.654577 -34.454281 -18.946800 151.655121 102.329041
7 101.696655 -8.392275 -7.654577 -34.454281 -18.946800 151.655121 102.329041
[L_rear_hand02]
6 102.726799 -1.568258 5.773216 83.407906 30.330435 172.796509 102.900848
7 102.726799 -1.568258 5.773216 83.407906 30.330435 172.796509 102.900848
[L_rear_hand03]
6 104.552910 9.721220 -10.420293 -161.379868 -16.473232 -150.512238 105.519653
7 104.552910 9.721220 -10.420293 -161.379868 -16.473232 -150.512238 105.519653
